<svg width="25" height="25" viewBox="0 0 25 25" fill="none" xmlns="http://www.w3.org/2000/svg">
<mask id="path-1-outside-1_38_12370" maskUnits="userSpaceOnUse" x="-0.799805" y="-0.799988" width="26" height="26" fill="black">
<rect fill="white" x="-0.799805" y="-0.799988" width="26" height="26"/>
<path fill-rule="evenodd" clip-rule="evenodd" d="M12.2002 18.9701H18.2684C18.9111 18.9701 19.495 18.6989 19.9184 18.2623C20.3418 17.8257 20.6048 17.2226 20.6048 16.5608V10.0536C20.6048 9.39082 20.3418 8.78878 19.9184 8.35217C19.495 7.91556 18.9111 7.64438 18.2684 7.64438H6.13208C5.48931 7.64438 4.90545 7.91556 4.48203 8.35217C4.0586 8.78878 3.79562 9.39082 3.79562 10.0536V16.5608C3.79562 17.2236 4.0586 17.8257 4.48203 18.2623C4.90545 18.6989 5.49033 18.9701 6.13208 18.9701C6.31587 18.9701 6.46512 19.124 6.46512 19.3135C6.46512 19.3229 6.46512 19.3334 6.4641 19.3428L6.47629 23.1865L12.0053 19.0372C12.0642 18.9932 12.1332 18.9713 12.2003 18.9713L12.2002 18.9701ZM3.15805 16.988H1.99847C1.50397 16.988 1.05414 16.7797 0.728195 16.4436C0.40225 16.1075 0.200195 15.6447 0.200195 15.1338V11.5635C0.200195 11.0536 0.402261 10.5897 0.728195 10.2536C1.05414 9.91752 1.50296 9.70918 1.99847 9.70918H3.14791C3.22509 8.99404 3.54087 8.35013 4.01101 7.86535C4.55528 7.30413 5.30566 6.95549 6.13221 6.95549H11.8681V4.27927C11.4508 4.20702 11.0781 4.00179 10.7918 3.70654C10.4314 3.33485 10.208 2.8218 10.208 2.2543C10.208 1.68681 10.4303 1.17378 10.7918 0.802058C11.1523 0.429321 11.6498 0.200012 12.2002 0.200012C12.7505 0.200012 13.2481 0.430361 13.6086 0.802058C13.969 1.17375 14.1924 1.68681 14.1924 2.2543C14.1924 2.8218 13.969 3.33483 13.6086 3.70654C13.3222 4.00182 12.9496 4.20703 12.5322 4.27927V6.95758H18.2682C19.0947 6.95758 19.8451 7.30625 20.3894 7.86744C20.8595 8.35222 21.1753 8.99613 21.2525 9.71127H22.4019C22.8964 9.71127 23.3463 9.91963 23.6722 10.2557C23.9981 10.5918 24.2002 11.0546 24.2002 11.5655V15.1358C24.2002 15.6457 23.9981 16.1096 23.6722 16.4457C23.3463 16.7818 22.8974 16.9901 22.4019 16.9901H21.2423C21.1499 17.6717 20.8412 18.2842 20.3894 18.7502C19.8451 19.3114 19.0948 19.66 18.2682 19.66L12.3056 19.6579L6.35131 24.1267C6.29445 24.1728 6.22337 24.2 6.1462 24.2C5.96241 24.2 5.81418 24.0471 5.81418 23.8576L5.80097 19.6382C5.10643 19.5586 4.48095 19.233 4.01081 18.7482C3.55895 18.2822 3.25044 17.6697 3.15805 16.988ZM1.99847 16.3001H3.12964V10.3971H1.99847C1.68775 10.3971 1.40548 10.528 1.20036 10.7394C0.995246 10.9509 0.868331 11.2431 0.868331 11.5624V15.1327C0.868331 15.4531 0.995256 15.7442 1.20036 15.9557C1.40446 16.1693 1.68775 16.3001 1.99847 16.3001ZM13.1376 1.28665C12.898 1.03955 12.567 0.886678 12.2004 0.886678C11.8338 0.886678 11.5028 1.03954 11.2631 1.28665C11.0235 1.53375 10.8753 1.87508 10.8753 2.25307C10.8753 2.63106 11.0235 2.97238 11.2631 3.21949C11.5028 3.46659 11.8338 3.61946 12.2004 3.61946C12.567 3.61946 12.898 3.46659 13.1376 3.21949C13.3772 2.97238 13.5255 2.63106 13.5255 2.25307C13.5255 1.87615 13.3772 1.5348 13.1376 1.28665ZM16.5291 10.9195C17.1688 10.9195 17.7476 11.1865 18.167 11.6189C18.5863 12.0513 18.8453 12.6481 18.8453 13.3078C18.8453 13.9674 18.5863 14.5642 18.167 14.9966C17.7476 15.4291 17.1688 15.6961 16.5291 15.6961C15.8894 15.6961 15.3106 15.4291 14.8912 14.9966C14.4719 14.5642 14.2129 13.9674 14.2129 13.3078C14.2129 12.6482 14.4719 12.0513 14.8912 11.6189C15.3106 11.1875 15.8894 10.9195 16.5291 10.9195ZM17.6948 12.1047C17.9933 12.4126 18.1781 12.8377 18.1781 13.3067C18.1781 13.7769 17.9933 14.2009 17.6948 14.5087C17.3963 14.8166 16.984 15.0071 16.5291 15.0071C16.0742 15.0071 15.662 14.8166 15.3634 14.5087C15.0649 14.2009 14.8811 13.7758 14.8811 13.3067C14.8811 12.8366 15.0659 12.4126 15.3634 12.1047C15.6619 11.7969 16.0742 11.6063 16.5291 11.6063C16.984 11.6074 17.3963 11.7969 17.6948 12.1047ZM7.87176 10.9195C8.51145 10.9195 9.09024 11.1865 9.50961 11.6189C9.92898 12.0513 10.1879 12.6481 10.1879 13.3078C10.1879 13.9674 9.92898 14.5642 9.50961 14.9966C9.09024 15.4291 8.51148 15.6961 7.87176 15.6961C7.23206 15.6961 6.65327 15.4291 6.2339 14.9966C5.81453 14.5642 5.5556 13.9674 5.5556 13.3078C5.5556 12.6482 5.81453 12.0513 6.2339 11.6189C6.65428 11.1875 7.23307 10.9195 7.87176 10.9195ZM9.03846 12.1047C9.33698 12.4126 9.52079 12.8377 9.52079 13.3067C9.52079 13.7769 9.33599 14.2009 9.03846 14.5087C8.73994 14.8166 8.32767 15.0071 7.87277 15.0071C7.41685 15.0071 7.00562 14.8166 6.70707 14.5087C6.40855 14.2009 6.22475 13.7758 6.22475 13.3067C6.22475 12.8366 6.40955 12.4126 6.70707 12.1047C7.00559 11.7969 7.41787 11.6063 7.87277 11.6063C8.32767 11.6074 8.73992 11.7969 9.03846 12.1047ZM22.4022 10.397H21.271V16.3001H22.4022C22.7129 16.3001 22.9952 16.1681 23.2003 15.9577C23.4054 15.7462 23.5323 15.4541 23.5323 15.1347L23.5334 11.5634C23.5334 11.243 23.4064 10.9508 23.2013 10.7404C22.9962 10.5289 22.7129 10.397 22.4022 10.397Z"/>
</mask>
<path fill-rule="evenodd" clip-rule="evenodd" d="M12.2002 18.9701H18.2684C18.9111 18.9701 19.495 18.6989 19.9184 18.2623C20.3418 17.8257 20.6048 17.2226 20.6048 16.5608V10.0536C20.6048 9.39082 20.3418 8.78878 19.9184 8.35217C19.495 7.91556 18.9111 7.64438 18.2684 7.64438H6.13208C5.48931 7.64438 4.90545 7.91556 4.48203 8.35217C4.0586 8.78878 3.79562 9.39082 3.79562 10.0536V16.5608C3.79562 17.2236 4.0586 17.8257 4.48203 18.2623C4.90545 18.6989 5.49033 18.9701 6.13208 18.9701C6.31587 18.9701 6.46512 19.124 6.46512 19.3135C6.46512 19.3229 6.46512 19.3334 6.4641 19.3428L6.47629 23.1865L12.0053 19.0372C12.0642 18.9932 12.1332 18.9713 12.2003 18.9713L12.2002 18.9701ZM3.15805 16.988H1.99847C1.50397 16.988 1.05414 16.7797 0.728195 16.4436C0.40225 16.1075 0.200195 15.6447 0.200195 15.1338V11.5635C0.200195 11.0536 0.402261 10.5897 0.728195 10.2536C1.05414 9.91752 1.50296 9.70918 1.99847 9.70918H3.14791C3.22509 8.99404 3.54087 8.35013 4.01101 7.86535C4.55528 7.30413 5.30566 6.95549 6.13221 6.95549H11.8681V4.27927C11.4508 4.20702 11.0781 4.00179 10.7918 3.70654C10.4314 3.33485 10.208 2.8218 10.208 2.2543C10.208 1.68681 10.4303 1.17378 10.7918 0.802058C11.1523 0.429321 11.6498 0.200012 12.2002 0.200012C12.7505 0.200012 13.2481 0.430361 13.6086 0.802058C13.969 1.17375 14.1924 1.68681 14.1924 2.2543C14.1924 2.8218 13.969 3.33483 13.6086 3.70654C13.3222 4.00182 12.9496 4.20703 12.5322 4.27927V6.95758H18.2682C19.0947 6.95758 19.8451 7.30625 20.3894 7.86744C20.8595 8.35222 21.1753 8.99613 21.2525 9.71127H22.4019C22.8964 9.71127 23.3463 9.91963 23.6722 10.2557C23.9981 10.5918 24.2002 11.0546 24.2002 11.5655V15.1358C24.2002 15.6457 23.9981 16.1096 23.6722 16.4457C23.3463 16.7818 22.8974 16.9901 22.4019 16.9901H21.2423C21.1499 17.6717 20.8412 18.2842 20.3894 18.7502C19.8451 19.3114 19.0948 19.66 18.2682 19.66L12.3056 19.6579L6.35131 24.1267C6.29445 24.1728 6.22337 24.2 6.1462 24.2C5.96241 24.2 5.81418 24.0471 5.81418 23.8576L5.80097 19.6382C5.10643 19.5586 4.48095 19.233 4.01081 18.7482C3.55895 18.2822 3.25044 17.6697 3.15805 16.988ZM1.99847 16.3001H3.12964V10.3971H1.99847C1.68775 10.3971 1.40548 10.528 1.20036 10.7394C0.995246 10.9509 0.868331 11.2431 0.868331 11.5624V15.1327C0.868331 15.4531 0.995256 15.7442 1.20036 15.9557C1.40446 16.1693 1.68775 16.3001 1.99847 16.3001ZM13.1376 1.28665C12.898 1.03955 12.567 0.886678 12.2004 0.886678C11.8338 0.886678 11.5028 1.03954 11.2631 1.28665C11.0235 1.53375 10.8753 1.87508 10.8753 2.25307C10.8753 2.63106 11.0235 2.97238 11.2631 3.21949C11.5028 3.46659 11.8338 3.61946 12.2004 3.61946C12.567 3.61946 12.898 3.46659 13.1376 3.21949C13.3772 2.97238 13.5255 2.63106 13.5255 2.25307C13.5255 1.87615 13.3772 1.5348 13.1376 1.28665ZM16.5291 10.9195C17.1688 10.9195 17.7476 11.1865 18.167 11.6189C18.5863 12.0513 18.8453 12.6481 18.8453 13.3078C18.8453 13.9674 18.5863 14.5642 18.167 14.9966C17.7476 15.4291 17.1688 15.6961 16.5291 15.6961C15.8894 15.6961 15.3106 15.4291 14.8912 14.9966C14.4719 14.5642 14.2129 13.9674 14.2129 13.3078C14.2129 12.6482 14.4719 12.0513 14.8912 11.6189C15.3106 11.1875 15.8894 10.9195 16.5291 10.9195ZM17.6948 12.1047C17.9933 12.4126 18.1781 12.8377 18.1781 13.3067C18.1781 13.7769 17.9933 14.2009 17.6948 14.5087C17.3963 14.8166 16.984 15.0071 16.5291 15.0071C16.0742 15.0071 15.662 14.8166 15.3634 14.5087C15.0649 14.2009 14.8811 13.7758 14.8811 13.3067C14.8811 12.8366 15.0659 12.4126 15.3634 12.1047C15.6619 11.7969 16.0742 11.6063 16.5291 11.6063C16.984 11.6074 17.3963 11.7969 17.6948 12.1047ZM7.87176 10.9195C8.51145 10.9195 9.09024 11.1865 9.50961 11.6189C9.92898 12.0513 10.1879 12.6481 10.1879 13.3078C10.1879 13.9674 9.92898 14.5642 9.50961 14.9966C9.09024 15.4291 8.51148 15.6961 7.87176 15.6961C7.23206 15.6961 6.65327 15.4291 6.2339 14.9966C5.81453 14.5642 5.5556 13.9674 5.5556 13.3078C5.5556 12.6482 5.81453 12.0513 6.2339 11.6189C6.65428 11.1875 7.23307 10.9195 7.87176 10.9195ZM9.03846 12.1047C9.33698 12.4126 9.52079 12.8377 9.52079 13.3067C9.52079 13.7769 9.33599 14.2009 9.03846 14.5087C8.73994 14.8166 8.32767 15.0071 7.87277 15.0071C7.41685 15.0071 7.00562 14.8166 6.70707 14.5087C6.40855 14.2009 6.22475 13.7758 6.22475 13.3067C6.22475 12.8366 6.40955 12.4126 6.70707 12.1047C7.00559 11.7969 7.41787 11.6063 7.87277 11.6063C8.32767 11.6074 8.73992 11.7969 9.03846 12.1047ZM22.4022 10.397H21.271V16.3001H22.4022C22.7129 16.3001 22.9952 16.1681 23.2003 15.9577C23.4054 15.7462 23.5323 15.4541 23.5323 15.1347L23.5334 11.5634C23.5334 11.243 23.4064 10.9508 23.2013 10.7404C22.9962 10.5289 22.7129 10.397 22.4022 10.397Z" fill="#335ECE"/>
<path fill-rule="evenodd" clip-rule="evenodd" d="M12.2002 18.9701H18.2684C18.9111 18.9701 19.495 18.6989 19.9184 18.2623C20.3418 17.8257 20.6048 17.2226 20.6048 16.5608V10.0536C20.6048 9.39082 20.3418 8.78878 19.9184 8.35217C19.495 7.91556 18.9111 7.64438 18.2684 7.64438H6.13208C5.48931 7.64438 4.90545 7.91556 4.48203 8.35217C4.0586 8.78878 3.79562 9.39082 3.79562 10.0536V16.5608C3.79562 17.2236 4.0586 17.8257 4.48203 18.2623C4.90545 18.6989 5.49033 18.9701 6.13208 18.9701C6.31587 18.9701 6.46512 19.124 6.46512 19.3135C6.46512 19.3229 6.46512 19.3334 6.4641 19.3428L6.47629 23.1865L12.0053 19.0372C12.0642 18.9932 12.1332 18.9713 12.2003 18.9713L12.2002 18.9701ZM3.15805 16.988H1.99847C1.50397 16.988 1.05414 16.7797 0.728195 16.4436C0.40225 16.1075 0.200195 15.6447 0.200195 15.1338V11.5635C0.200195 11.0536 0.402261 10.5897 0.728195 10.2536C1.05414 9.91752 1.50296 9.70918 1.99847 9.70918H3.14791C3.22509 8.99404 3.54087 8.35013 4.01101 7.86535C4.55528 7.30413 5.30566 6.95549 6.13221 6.95549H11.8681V4.27927C11.4508 4.20702 11.0781 4.00179 10.7918 3.70654C10.4314 3.33485 10.208 2.8218 10.208 2.2543C10.208 1.68681 10.4303 1.17378 10.7918 0.802058C11.1523 0.429321 11.6498 0.200012 12.2002 0.200012C12.7505 0.200012 13.2481 0.430361 13.6086 0.802058C13.969 1.17375 14.1924 1.68681 14.1924 2.2543C14.1924 2.8218 13.969 3.33483 13.6086 3.70654C13.3222 4.00182 12.9496 4.20703 12.5322 4.27927V6.95758H18.2682C19.0947 6.95758 19.8451 7.30625 20.3894 7.86744C20.8595 8.35222 21.1753 8.99613 21.2525 9.71127H22.4019C22.8964 9.71127 23.3463 9.91963 23.6722 10.2557C23.9981 10.5918 24.2002 11.0546 24.2002 11.5655V15.1358C24.2002 15.6457 23.9981 16.1096 23.6722 16.4457C23.3463 16.7818 22.8974 16.9901 22.4019 16.9901H21.2423C21.1499 17.6717 20.8412 18.2842 20.3894 18.7502C19.8451 19.3114 19.0948 19.66 18.2682 19.66L12.3056 19.6579L6.35131 24.1267C6.29445 24.1728 6.22337 24.2 6.1462 24.2C5.96241 24.2 5.81418 24.0471 5.81418 23.8576L5.80097 19.6382C5.10643 19.5586 4.48095 19.233 4.01081 18.7482C3.55895 18.2822 3.25044 17.6697 3.15805 16.988ZM1.99847 16.3001H3.12964V10.3971H1.99847C1.68775 10.3971 1.40548 10.528 1.20036 10.7394C0.995246 10.9509 0.868331 11.2431 0.868331 11.5624V15.1327C0.868331 15.4531 0.995256 15.7442 1.20036 15.9557C1.40446 16.1693 1.68775 16.3001 1.99847 16.3001ZM13.1376 1.28665C12.898 1.03955 12.567 0.886678 12.2004 0.886678C11.8338 0.886678 11.5028 1.03954 11.2631 1.28665C11.0235 1.53375 10.8753 1.87508 10.8753 2.25307C10.8753 2.63106 11.0235 2.97238 11.2631 3.21949C11.5028 3.46659 11.8338 3.61946 12.2004 3.61946C12.567 3.61946 12.898 3.46659 13.1376 3.21949C13.3772 2.97238 13.5255 2.63106 13.5255 2.25307C13.5255 1.87615 13.3772 1.5348 13.1376 1.28665ZM16.5291 10.9195C17.1688 10.9195 17.7476 11.1865 18.167 11.6189C18.5863 12.0513 18.8453 12.6481 18.8453 13.3078C18.8453 13.9674 18.5863 14.5642 18.167 14.9966C17.7476 15.4291 17.1688 15.6961 16.5291 15.6961C15.8894 15.6961 15.3106 15.4291 14.8912 14.9966C14.4719 14.5642 14.2129 13.9674 14.2129 13.3078C14.2129 12.6482 14.4719 12.0513 14.8912 11.6189C15.3106 11.1875 15.8894 10.9195 16.5291 10.9195ZM17.6948 12.1047C17.9933 12.4126 18.1781 12.8377 18.1781 13.3067C18.1781 13.7769 17.9933 14.2009 17.6948 14.5087C17.3963 14.8166 16.984 15.0071 16.5291 15.0071C16.0742 15.0071 15.662 14.8166 15.3634 14.5087C15.0649 14.2009 14.8811 13.7758 14.8811 13.3067C14.8811 12.8366 15.0659 12.4126 15.3634 12.1047C15.6619 11.7969 16.0742 11.6063 16.5291 11.6063C16.984 11.6074 17.3963 11.7969 17.6948 12.1047ZM7.87176 10.9195C8.51145 10.9195 9.09024 11.1865 9.50961 11.6189C9.92898 12.0513 10.1879 12.6481 10.1879 13.3078C10.1879 13.9674 9.92898 14.5642 9.50961 14.9966C9.09024 15.4291 8.51148 15.6961 7.87176 15.6961C7.23206 15.6961 6.65327 15.4291 6.2339 14.9966C5.81453 14.5642 5.5556 13.9674 5.5556 13.3078C5.5556 12.6482 5.81453 12.0513 6.2339 11.6189C6.65428 11.1875 7.23307 10.9195 7.87176 10.9195ZM9.03846 12.1047C9.33698 12.4126 9.52079 12.8377 9.52079 13.3067C9.52079 13.7769 9.33599 14.2009 9.03846 14.5087C8.73994 14.8166 8.32767 15.0071 7.87277 15.0071C7.41685 15.0071 7.00562 14.8166 6.70707 14.5087C6.40855 14.2009 6.22475 13.7758 6.22475 13.3067C6.22475 12.8366 6.40955 12.4126 6.70707 12.1047C7.00559 11.7969 7.41787 11.6063 7.87277 11.6063C8.32767 11.6074 8.73992 11.7969 9.03846 12.1047ZM22.4022 10.397H21.271V16.3001H22.4022C22.7129 16.3001 22.9952 16.1681 23.2003 15.9577C23.4054 15.7462 23.5323 15.4541 23.5323 15.1347L23.5334 11.5634C23.5334 11.243 23.4064 10.9508 23.2013 10.7404C22.9962 10.5289 22.7129 10.397 22.4022 10.397Z" stroke="#335ECE" stroke-width="0.4" mask="url(#path-1-outside-1_38_12370)"/>
</svg>
