<svg width="21" height="15" viewBox="0 0 21 15" fill="none" xmlns="http://www.w3.org/2000/svg">
<path d="M6.96583 2.91363C6.81522 2.6904 6.51302 2.63142 6.2893 2.78154L0.315048 6.80613C0.180521 6.89679 0.100098 7.04838 0.100098 7.21069C0.100098 7.37299 0.181009 7.52458 0.315048 7.61524L6.2893 11.6398C6.5101 11.789 6.81473 11.7324 6.96583 11.5077C7.11595 11.2845 7.05698 10.9813 6.83374 10.8312L1.4595 7.21069L6.83374 3.59016C7.05698 3.43955 7.11595 3.13687 6.96583 2.91363Z" fill="#335ECE" stroke="#335ECE" stroke-width="0.2"/>
<path d="M19.8852 6.80613L13.9109 2.78154C13.6872 2.63142 13.3845 2.6904 13.2344 2.91363C13.0843 3.13687 13.1433 3.44004 13.3665 3.59016L18.7407 7.21069L13.3665 10.8312C13.1433 10.9818 13.0843 11.2845 13.2344 11.5077C13.386 11.7324 13.6906 11.789 13.9109 11.6398L19.8852 7.61524C20.0197 7.52458 20.1001 7.37299 20.1001 7.21069C20.1001 7.04838 20.0192 6.89679 19.8852 6.80613Z" fill="#335ECE" stroke="#335ECE" stroke-width="0.2"/>
<path d="M12.1873 0.119281C11.9304 0.0451937 11.6584 0.190931 11.5819 0.449261L7.68257 13.6962C7.60654 13.9546 7.75422 14.2251 8.01255 14.3016C8.26406 14.3776 8.54237 14.2319 8.61792 13.9716L12.5172 0.724651C12.5933 0.466321 12.4456 0.195805 12.1873 0.119281Z" fill="#335ECE" stroke="#335ECE" stroke-width="0.2"/>
</svg>
