<svg width="19" height="22" viewBox="0 0 19 22" fill="none" xmlns="http://www.w3.org/2000/svg">
<path d="M13.1993 21.8867H13.2008C13.303 21.8867 13.4042 21.8488 13.4816 21.7745L17.8665 17.6299C17.9492 17.552 17.9903 17.4445 17.9913 17.3344C18.0345 17.2622 18.0614 17.1779 18.0614 17.0873V1.73539C18.0614 0.778658 17.2848 0 16.3302 0H1.73064C0.776024 0 0 0.778658 0 1.73539V20.2651C0 21.2219 0.776551 22 1.73064 22H12.8926C13.0101 22 13.116 21.9568 13.1993 21.8867ZM13.6102 20.5264V18.9338C13.6102 18.2763 14.1433 17.7421 14.7987 17.7421H16.5557L13.6102 20.5264ZM12.4127 21.0369H1.73064C1.30602 21.0369 0.960415 20.6913 0.960415 20.2651V1.73591C0.960415 1.30971 1.30602 0.963577 1.73064 0.963577H16.3308C16.7559 0.963577 17.101 1.30971 17.101 1.73591V16.6063H14.8572C13.509 16.6063 12.4127 17.7053 12.4127 19.0561V21.0369Z" fill="#043248"/>
<path d="M3.74024 6.4027H14.3217C14.5872 6.4027 14.8021 6.18722 14.8021 5.92117V5.0577C14.8021 4.79165 14.5872 4.57617 14.3217 4.57617H3.74024C3.47471 4.57617 3.25977 4.79165 3.25977 5.0577V5.92117C3.25977 6.18722 3.47471 6.4027 3.74024 6.4027ZM3.83612 5.15463H14.2258V5.82476H3.83612V5.15463Z" fill="#043248"/>
<path d="M3.74024 9.42313H14.3217C14.5872 9.42313 14.8021 9.20818 14.8021 8.94161V8.07918C14.8021 7.81313 14.5872 7.59766 14.3217 7.59766H3.74024C3.47471 7.59766 3.25977 7.81313 3.25977 8.07918V8.94161C3.25977 9.20818 3.47471 9.42313 3.74024 9.42313ZM3.83612 8.17507H14.2258V8.84572H3.83612V8.17507Z" fill="#043248"/>
<path d="M14.8021 11.9622V11.0987C14.8021 10.8332 14.5872 10.6172 14.3217 10.6172H3.74024C3.47471 10.6172 3.25977 10.8332 3.25977 11.0987V11.9622C3.25977 12.2277 3.47471 12.4437 3.74024 12.4437H14.3217C14.5872 12.4437 14.8021 12.2277 14.8021 11.9622ZM14.2253 11.8658H3.83612V11.1962H14.2258L14.2253 11.8658Z" fill="#043248"/>
</svg>
