<svg width="19" height="17" viewBox="0 0 19 17" fill="none" xmlns="http://www.w3.org/2000/svg">
<path d="M14.4658 6.19693C15.568 6.19712 16.457 7.0869 16.457 8.18912C16.4568 9.29118 15.5679 10.1801 14.4658 10.1803C13.3636 10.1803 12.4738 9.29129 12.4736 8.18912C12.4736 7.08678 13.3635 6.19693 14.4658 6.19693ZM14.4658 6.8815C13.7392 6.8815 13.1582 7.46254 13.1582 8.18912C13.1584 8.91508 13.7578 9.49673 14.4658 9.49673C15.1921 9.49655 15.7733 8.91542 15.7734 8.18912C15.7734 7.46266 15.1922 6.88168 14.4658 6.8815Z" fill="#073A53" stroke="#073A53" stroke-width="0.1"/>
<path d="M9.03711 0.0502014C14.0004 0.0503827 18.0428 3.76405 18.043 8.33926C18.043 12.9146 14.0005 16.6291 9.03711 16.6293H9.01758C8.54938 16.6292 8.1188 16.395 7.88281 16.0033L7.79785 15.852C7.62604 15.4895 7.63463 15.0687 7.82324 14.7084C8.08351 14.2065 8.21387 13.6674 8.21387 13.1098C8.21387 11.1212 6.54022 9.48282 4.47363 9.48282C3.65423 9.48287 2.87323 9.72523 2.22266 10.2084C1.83148 10.5018 1.3416 10.56 0.891602 10.3647V10.3656C0.459653 10.1889 0.165287 9.79624 0.106445 9.32657V9.32559C0.068543 9.00335 0.0498213 8.68108 0.0498047 8.3588C0.0498047 3.78363 4.07327 0.0502014 9.03711 0.0502014ZM9.05566 0.753326C4.45957 0.753326 0.734375 4.16707 0.734375 8.3588C0.734388 8.58333 0.744601 8.79673 0.773438 9.01505L0.808594 9.23575L0.80957 9.24063L0.821289 9.32364C0.856474 9.48595 0.956686 9.62338 1.09961 9.70743L1.1748 9.74551L1.17773 9.74649C1.38489 9.85007 1.62873 9.81659 1.82324 9.6752H1.82422C2.58669 9.12254 3.50166 8.81784 4.47363 8.81778C6.93198 8.81778 8.91683 10.7426 8.91699 13.1283C8.91699 13.796 8.76444 14.4457 8.45898 15.0375C8.37221 15.2307 8.37306 15.4743 8.49316 15.6645L8.54297 15.7279C8.66636 15.8703 8.83935 15.9633 9.03711 15.9633H9.05566C13.6516 15.9633 17.3767 12.5503 17.377 8.3588C17.377 4.16708 13.6517 0.753357 9.05566 0.753326Z" fill="#073A53" stroke="#073A53" stroke-width="0.1"/>
<path d="M12.2041 2.12378C13.3063 2.12397 14.1953 3.01375 14.1953 4.11597C14.1951 5.21802 13.3062 6.10699 12.2041 6.10718C11.1019 6.10718 10.2121 5.21814 10.2119 4.11597C10.2119 3.03201 11.102 2.1431 12.2031 2.12378H12.2041ZM12.2041 2.80835C11.4775 2.80835 10.8965 3.38939 10.8965 4.11597C10.8967 4.84238 11.4776 5.42358 12.2041 5.42358C12.9304 5.4234 13.5115 4.84226 13.5117 4.11597C13.5117 3.38951 12.9305 2.80853 12.2041 2.80835Z" fill="#073A53" stroke="#073A53" stroke-width="0.1"/>
<path d="M3.64355 4.12335C4.74573 4.12354 5.63477 5.01332 5.63477 6.11554C5.63458 7.2176 4.74561 8.10656 3.64355 8.10675C2.54134 8.10675 1.65155 7.21771 1.65137 6.11554C1.65137 5.01321 2.54122 4.12335 3.64355 4.12335ZM2.33594 6.11554C2.33612 6.84195 2.91709 7.42316 3.64355 7.42316C4.36985 7.42297 4.95099 6.84184 4.95117 6.11554C4.95117 5.38908 4.36997 4.80811 3.64355 4.80792C2.91592 4.80792 2.31803 5.38929 2.33594 6.11359V6.11554Z" fill="#073A53" stroke="#073A53" stroke-width="0.1"/>
<path d="M12.4502 10.2886C13.5524 10.2888 14.4414 11.1785 14.4414 12.2808C14.4412 13.3828 13.5523 14.2718 12.4502 14.272C11.348 14.272 10.4582 13.3829 10.458 12.2808C10.458 11.1965 11.3672 10.3079 12.4492 10.2886H12.4502ZM12.4688 10.9731C11.7422 10.9731 11.1611 11.5542 11.1611 12.2808C11.1613 13.0072 11.7423 13.5884 12.4688 13.5884C13.1952 13.5884 13.7762 13.0072 13.7764 12.2808C13.7764 11.5542 13.1953 10.9732 12.4688 10.9731Z" fill="#073A53" stroke="#073A53" stroke-width="0.1"/>
<path d="M7.37793 1.53925C8.4801 1.53943 9.36914 2.42921 9.36914 3.53143C9.36895 4.63349 8.47999 5.52246 7.37793 5.52264C6.27571 5.52264 5.38593 4.63361 5.38574 3.53143C5.38574 2.44795 6.29445 1.53925 7.37793 1.53925ZM7.39648 2.22382C6.66991 2.22382 6.08887 2.80486 6.08887 3.53143C6.08905 4.25784 6.67003 4.83905 7.39648 4.83905C8.12292 4.83903 8.70392 4.25783 8.7041 3.53143C8.7041 2.80487 8.12304 2.22384 7.39648 2.22382Z" fill="#073A53" stroke="#073A53" stroke-width="0.1"/>
</svg>
